<svg width="41" height="41" viewBox="0 0 41 41" fill="none" xmlns="http://www.w3.org/2000/svg">
<rect x="5.50732" y="5.49756" width="29" height="29" rx="5.5" fill="#A560FE" stroke="#151518"/>
<rect x="11" y="11" width="18" height="17" fill="#150F37"/>
<path d="M16.374 10.0588C17.4456 11.1304 20.3746 12.6307 23.518 10.0588" stroke="#150F37"/>
<path d="M29.9478 16.4885C28.8762 17.5601 27.3759 20.4891 29.9478 23.6325" stroke="#150F37"/>
<rect x="6.42969" y="13.5737" width="10.1031" height="10.1031" rx="5.05153" transform="rotate(-45 6.42969 13.5737)" fill="#150F37"/>
<rect x="19.2886" y="26.4329" width="10.1031" height="10.1031" rx="5.05153" transform="rotate(-45 19.2886 26.4329)" fill="#150F37"/>
<rect x="19.2891" y="13.5735" width="10.1031" height="10.1031" rx="5.05153" transform="rotate(-45 19.2891 13.5735)" fill="#150F37"/>
<path d="M23.2749 29.5901C22.2033 28.5185 19.2743 27.0183 16.131 29.5901" stroke="#150F37"/>
<path d="M9.70215 23.1602C10.7737 22.0886 12.274 19.1595 9.70215 16.0162" stroke="#150F37"/>
<rect x="20.3608" y="26.0754" width="10.1031" height="10.1031" rx="5.05153" transform="rotate(135 20.3608 26.0754)" fill="#150F37"/>
<path d="M13.0005 12L15 15H11L13.0005 12Z" stroke="#A560FE"/>
<path d="M13.3944 19.5528L13.5 19.5L15.6 19.2C16.5088 19.0702 17.3509 18.6491 18 18L18.2929 17.7071C18.7456 17.2544 19.3597 17 20 17C20.6403 17 21.2544 17.2544 21.7071 17.7071L22 18C22.6504 18.6504 23.4877 19.0813 24.395 19.2325L26 19.5C26.4805 19.6602 26.4805 20.3398 26 20.5L24.395 20.7675C23.4877 20.9187 22.6504 21.3496 22 22L21.0597 23.4104C21.02 23.47 20.9866 23.5335 20.96 23.6C20.6134 24.4666 19.3866 24.4666 19.04 23.6C19.0134 23.5335 18.98 23.47 18.9403 23.4104L18 22C17.3442 21.3442 16.532 20.8663 15.6402 20.6115L13.5 20C13.2509 20 13.1716 19.6642 13.3944 19.5528Z" stroke="#A560FE"/>
<rect x="18" y="19.5" width="4" height="1" rx="0.5" fill="#A560FE"/>
<rect x="24.5" y="11.5" width="4" height="4" rx="2" stroke="#A560FE"/>
<path d="M24.7678 28.3034L28.3033 24.7679M24.7678 24.7679L28.3033 28.3034" stroke="#A560FE"/>
<rect x="11.5" y="24.5" width="3" height="3" stroke="#A560FE"/>
</svg>
